# xmcd
#
# Track frame offsets:
#  150
#  33248
#  59702
#  88625
#  155278
#  203198
#  225799
#
# Disc length: 3301 seconds
#
# Revision: 1
# Processed by: cddbd v1.5.1PL0 Copyright (c) Steve Scherf et al.
# Submitted via: Collectorz.com Music Collector 6.9
#
DISCID=4d0ce307
DTITLE=Ten Years After - Roadworks
DYEAR=2005
DGENRE=Blues Live
TTITLE0=Love Like A Man
TTITLE1=I'd Love To Change The World
TTITLE2=Time To Kill
TTITLE3=I Can't Keep From Crying Sometimes /Jam On One Chord
TTITLE4=I'm Going Home
TTITLE5=Reasons Why
TTITLE6=Choo Choo Mama
EXTD=
EXTT0=
EXTT1=
EXTT2=
EXTT3=
EXTT4=
EXTT5=
EXTT6=
PLAYORDER=
